<svg id="my-svg" width="100%" xmlns="http://www.w3.org/2000/svg" xmlns:xlink="http://www.w3.org/1999/xlink" class="classDiagram" style="max-width: 978.547px; background-color: transparent;" viewBox="0 0 978.546875 395" role="graphics-document document" aria-roledescription="class"><style>#my-svg{font-family:Helvetica Neue,Helvetica,Arial,sans-serif;font-size:22px;fill:#1a1a1a;}@keyframes edge-animation-frame{from{stroke-dashoffset:0;}}@keyframes dash{to{stroke-dashoffset:0;}}#my-svg .edge-animation-slow{stroke-dasharray:9,5!important;stroke-dashoffset:900;animation:dash 50s linear infinite;stroke-linecap:round;}#my-svg .edge-animation-fast{stroke-dasharray:9,5!important;stroke-dashoffset:900;animation:dash 20s linear infinite;stroke-linecap:round;}#my-svg .error-icon{fill:hsl(349.0909090909, 29.7297297297%, 97.7450980392%);}#my-svg .error-text{fill:rgb(4.0405405406, 7.4594594595, 6.8378378379);stroke:rgb(4.0405405406, 7.4594594595, 6.8378378379);}#my-svg .edge-thickness-normal{stroke-width:1px;}#my-svg .edge-thickness-thick{stroke-width:3.5px;}#my-svg .edge-pattern-solid{stroke-dasharray:0;}#my-svg .edge-thickness-invisible{stroke-width:0;fill:none;}#my-svg .edge-pattern-dashed{stroke-dasharray:3;}#my-svg .edge-pattern-dotted{stroke-dasharray:2;}#my-svg .marker{fill:#0f766e;stroke:#0f766e;}#my-svg .marker.cross{stroke:#0f766e;}#my-svg svg{font-family:Helvetica Neue,Helvetica,Arial,sans-serif;font-size:22px;}#my-svg p{margin:0;}#my-svg g.classGroup text{fill:#0f766e;stroke:none;font-family:Helvetica Neue,Helvetica,Arial,sans-serif;font-size:10px;}#my-svg g.classGroup text .title{font-weight:bolder;}#my-svg .cluster-label text{fill:rgb(4.0405405406, 7.4594594595, 6.8378378379);}#my-svg .cluster-label span{color:rgb(4.0405405406, 7.4594594595, 6.8378378379);}#my-svg .cluster-label span p{background-color:transparent;}#my-svg .cluster rect{fill:hsl(349.0909090909, 29.7297297297%, 97.7450980392%);stroke:hsl(349.0909090909, 0%, 87.7450980392%);stroke-width:1px;}#my-svg .cluster text{fill:rgb(4.0405405406, 7.4594594595, 6.8378378379);}#my-svg .cluster span{color:rgb(4.0405405406, 7.4594594595, 6.8378378379);}#my-svg .nodeLabel,#my-svg .edgeLabel{color:#1a1a1a;}#my-svg .noteLabel .nodeLabel,#my-svg .noteLabel .edgeLabel{color:#333;}#my-svg .edgeLabel .label rect{fill:#e7f2f0;}#my-svg .label text{fill:#1a1a1a;}#my-svg .labelBkg{background:#e7f2f0;}#my-svg .edgeLabel .label span{background:#e7f2f0;}#my-svg .classTitle{font-weight:bolder;}#my-svg .node rect,#my-svg .node circle,#my-svg .node ellipse,#my-svg .node polygon,#my-svg .node path{fill:#e7f2f0;stroke:#0f766e;stroke-width:1;}#my-svg .divider{stroke:#0f766e;stroke-width:1;}#my-svg g.clickable{cursor:pointer;}#my-svg g.classGroup rect{fill:#e7f2f0;stroke:#0f766e;}#my-svg g.classGroup line{stroke:#0f766e;stroke-width:1;}#my-svg .classLabel .box{stroke:none;stroke-width:0;fill:#e7f2f0;opacity:0.5;}#my-svg .classLabel .label{fill:#0f766e;font-size:10px;}#my-svg .relation{stroke:#0f766e;stroke-width:1;fill:none;}#my-svg .dashed-line{stroke-dasharray:3;}#my-svg .dotted-line{stroke-dasharray:1 2;}#my-svg [id$="-compositionStart"],#my-svg .composition{fill:#0f766e!important;stroke:#0f766e!important;stroke-width:1;}#my-svg [id$="-compositionEnd"],#my-svg .composition{fill:#0f766e!important;stroke:#0f766e!important;stroke-width:1;}#my-svg [id$="-dependencyStart"],#my-svg .dependency{fill:#0f766e!important;stroke:#0f766e!important;stroke-width:1;}#my-svg [id$="-dependencyEnd"],#my-svg .dependency{fill:#0f766e!important;stroke:#0f766e!important;stroke-width:1;}#my-svg [id$="-extensionStart"],#my-svg .extension{fill:transparent!important;stroke:#0f766e!important;stroke-width:1;}#my-svg [id$="-extensionEnd"],#my-svg .extension{fill:transparent!important;stroke:#0f766e!important;stroke-width:1;}#my-svg [id$="-aggregationStart"],#my-svg .aggregation{fill:transparent!important;stroke:#0f766e!important;stroke-width:1;}#my-svg [id$="-aggregationEnd"],#my-svg .aggregation{fill:transparent!important;stroke:#0f766e!important;stroke-width:1;}#my-svg [id$="-lollipopStart"],#my-svg .lollipop{fill:#e7f2f0!important;stroke:#0f766e!important;stroke-width:1;}#my-svg [id$="-lollipopEnd"],#my-svg .lollipop{fill:#e7f2f0!important;stroke:#0f766e!important;stroke-width:1;}#my-svg .edgeTerminals{font-size:11px;line-height:initial;}#my-svg .classTitleText{text-anchor:middle;font-size:18px;fill:#1a1a1a;}#my-svg .edgeLabel[data-look="neo"]{background-color:#fdfdfb;text-align:center;}#my-svg .edgeLabel[data-look="neo"] p{background-color:#fdfdfb;}#my-svg .edgeLabel[data-look="neo"] rect{opacity:0.5;background-color:#fdfdfb;fill:#fdfdfb;}#my-svg .label-icon{display:inline-block;height:1em;overflow:visible;vertical-align:-0.125em;}#my-svg .node .label-icon path{fill:currentColor;stroke:revert;stroke-width:revert;}#my-svg .node .neo-node{stroke:#0f766e;}#my-svg [data-look="neo"].node rect,#my-svg [data-look="neo"].cluster rect,#my-svg [data-look="neo"].node polygon{stroke:url(#my-svg-gradient);filter:drop-shadow( 1px 2px 2px rgba(185,185,185,1));}#my-svg [data-look="neo"].swimlane.cluster rect{filter:none;}#my-svg [data-look="neo"].node path{stroke:url(#my-svg-gradient);stroke-width:1px;}#my-svg [data-look="neo"].node .outer-path{filter:drop-shadow( 1px 2px 2px rgba(185,185,185,1));}#my-svg [data-look="neo"].node .neo-line path{stroke:#0f766e;filter:none;}#my-svg [data-look="neo"].node circle{stroke:url(#my-svg-gradient);filter:drop-shadow( 1px 2px 2px rgba(185,185,185,1));}#my-svg [data-look="neo"].node circle .state-start{fill:#000000;}#my-svg [data-look="neo"].icon-shape .icon{fill:url(#my-svg-gradient);filter:drop-shadow( 1px 2px 2px rgba(185,185,185,1));}#my-svg [data-look="neo"].icon-shape .icon-neo path{stroke:url(#my-svg-gradient);filter:drop-shadow( 1px 2px 2px rgba(185,185,185,1));}#my-svg :root{--mermaid-font-family:Helvetica Neue,Helvetica,Arial,sans-serif;}</style><g><defs><marker id="my-svg_class-aggregationStart" class="marker aggregation class" refX="18" refY="7" markerWidth="190" markerHeight="240" orient="auto"><path d="M 18,7 L9,13 L1,7 L9,1 Z"/></marker></defs><defs><marker id="my-svg_class-aggregationEnd" class="marker aggregation class" refX="1" refY="7" markerWidth="20" markerHeight="28" orient="auto"><path d="M 18,7 L9,13 L1,7 L9,1 Z"/></marker></defs><defs><marker id="my-svg_class-aggregationStart-margin" class="marker aggregation class" refX="15" refY="7" markerWidth="190" markerHeight="240" orient="auto" markerUnits="userSpaceOnUse"><path d="M 18,7 L9,13 L1,7 L9,1 Z" style="stroke-width: 2;"/></marker></defs><defs><marker id="my-svg_class-aggregationEnd-margin" class="marker aggregation class" refX="1" refY="7" markerWidth="20" markerHeight="28" orient="auto" markerUnits="userSpaceOnUse"><path d="M 18,7 L9,13 L1,7 L9,1 Z" style="stroke-width: 2;"/></marker></defs><defs><marker id="my-svg_class-extensionStart" class="marker extension class" refX="18" refY="7" markerWidth="20" markerHeight="28" orient="auto" markerUnits="userSpaceOnUse"><path d="M 1,7 L18,13 V 1 Z"/></marker></defs><defs><marker id="my-svg_class-extensionEnd" class="marker extension class" refX="1" refY="7" markerWidth="20" markerHeight="28" orient="auto"><path d="M 1,1 V 13 L18,7 Z"/></marker></defs><marker id="my-svg_class-extensionStart-margin" class="marker extension class" refX="18" refY="7" markerWidth="20" markerHeight="28" orient="auto" markerUnits="userSpaceOnUse" viewBox="0 0 20 14"><polygon points="10,7 18,13 18,1" style="stroke-width: 2; stroke-dasharray: 0;"/></marker><defs><marker id="my-svg_class-extensionEnd-margin" class="marker extension class" refX="9" refY="7" markerWidth="20" markerHeight="28" orient="auto" markerUnits="userSpaceOnUse" viewBox="0 0 20 14"><polygon points="10,1 10,13 18,7" style="stroke-width: 2; stroke-dasharray: 0;"/></marker></defs><defs><marker id="my-svg_class-compositionStart" class="marker composition class" refX="18" refY="7" markerWidth="190" markerHeight="240" orient="auto"><path d="M 18,7 L9,13 L1,7 L9,1 Z"/></marker></defs><defs><marker id="my-svg_class-compositionEnd" class="marker composition class" refX="1" refY="7" markerWidth="20" markerHeight="28" orient="auto"><path d="M 18,7 L9,13 L1,7 L9,1 Z"/></marker></defs><defs><marker id="my-svg_class-compositionStart-margin" class="marker composition class" refX="15" refY="7" markerWidth="190" markerHeight="240" orient="auto" markerUnits="userSpaceOnUse"><path viewBox="0 0 15 15" d="M 18,7 L9,13 L1,7 L9,1 Z" style="stroke-width: 0;"/></marker></defs><defs><marker id="my-svg_class-compositionEnd-margin" class="marker composition class" refX="3.5" refY="7" markerWidth="20" markerHeight="28" orient="auto" markerUnits="userSpaceOnUse"><path d="M 18,7 L9,13 L1,7 L9,1 Z" style="stroke-width: 0;"/></marker></defs><defs><marker id="my-svg_class-dependencyStart" class="marker dependency class" refX="6" refY="7" markerWidth="190" markerHeight="240" orient="auto"><path d="M 5,7 L9,13 L1,7 L9,1 Z"/></marker></defs><defs><marker id="my-svg_class-dependencyEnd" class="marker dependency class" refX="13" refY="7" markerWidth="20" markerHeight="28" orient="auto"><path d="M 18,7 L9,13 L14,7 L9,1 Z"/></marker></defs><defs><marker id="my-svg_class-dependencyStart-margin" class="marker dependency class" refX="4" refY="7" markerWidth="190" markerHeight="240" orient="auto" markerUnits="userSpaceOnUse"><path d="M 5,7 L9,13 L1,7 L9,1 Z" style="stroke-width: 0;"/></marker></defs><defs><marker id="my-svg_class-dependencyEnd-margin" class="marker dependency class" refX="16" refY="7" markerWidth="20" markerHeight="28" orient="auto" markerUnits="userSpaceOnUse"><path d="M 18,7 L9,13 L14,7 L9,1 Z" style="stroke-width: 0;"/></marker></defs><defs><marker id="my-svg_class-lollipopStart" class="marker lollipop class" refX="13" refY="7" markerWidth="190" markerHeight="240" orient="auto"><circle fill="transparent" cx="7" cy="7" r="6"/></marker></defs><defs><marker id="my-svg_class-lollipopEnd" class="marker lollipop class" refX="1" refY="7" markerWidth="190" markerHeight="240" orient="auto"><circle fill="transparent" cx="7" cy="7" r="6"/></marker></defs><defs><marker id="my-svg_class-lollipopStart-margin" class="marker lollipop class" refX="13" refY="7" markerWidth="190" markerHeight="240" orient="auto" markerUnits="userSpaceOnUse"><circle fill="transparent" cx="7" cy="7" r="6" stroke-width="2"/></marker></defs><defs><marker id="my-svg_class-lollipopEnd-margin" class="marker lollipop class" refX="1" refY="7" markerWidth="190" markerHeight="240" orient="auto" markerUnits="userSpaceOnUse"><circle fill="transparent" cx="7" cy="7" r="6" stroke-width="2"/></marker></defs><g class="root"><g class="clusters"/><g class="edgePaths"><path d="M241.609,197.5L248.697,197.5C255.784,197.5,269.958,197.5,283.133,197.5C296.307,197.5,308.482,197.5,314.569,197.5L320.656,197.5" id="my-svg-id_Reserva_PoliticaDePrioridade_1" class="edge-thickness-normal edge-pattern-solid relation" style=";;;" data-edge="true" data-et="edge" data-id="id_Reserva_PoliticaDePrioridade_1" data-points="W3sieCI6MjQxLjYwOTM3NSwieSI6MTk3LjV9LHsieCI6Mjg0LjEzMjgxMjUsInkiOjE5Ny41fSx7IngiOjMyNi42NTYyNSwieSI6MTk3LjV9XQ==" data-look="classic" marker-end="url(#my-svg_class-dependencyEnd)"/><path d="M645.821,90.615L654.112,84.596C662.402,78.577,678.982,66.538,691.439,60.519C703.896,54.5,712.229,54.5,716.396,54.5L720.563,54.5" id="my-svg-id_PoliticaDePrioridade_PrioridadeAcademica_2" class="edge-thickness-normal edge-pattern-dashed relation" style=";;;" data-edge="true" data-et="edge" data-id="id_PoliticaDePrioridade_PrioridadeAcademica_2" data-points="W3sieCI6NjMxLjg2MjYyNTY1NTU5NDUsInkiOjEwMC43NX0seyJ4Ijo2OTUuNTYyNSwieSI6NTQuNX0seyJ4Ijo3MjAuNTYyNSwieSI6NTQuNX1d" data-look="classic" marker-start="url(#my-svg_class-extensionStart)"/><path d="M687.813,197.5L689.104,197.5C690.396,197.5,692.979,197.5,702.163,197.5C711.346,197.5,727.13,197.5,735.022,197.5L742.914,197.5" id="my-svg-id_PoliticaDePrioridade_PrioridadeEvento_3" class="edge-thickness-normal edge-pattern-dashed relation" style=";;;" data-edge="true" data-et="edge" data-id="id_PoliticaDePrioridade_PrioridadeEvento_3" data-points="W3sieCI6NjcwLjU2MjUsInkiOjE5Ny41fSx7IngiOjY5NS41NjI1LCJ5IjoxOTcuNX0seyJ4Ijo3NDIuOTE0MDYyNSwieSI6MTk3LjV9XQ==" data-look="classic" marker-start="url(#my-svg_class-extensionStart)"/><path d="M645.821,304.385L654.112,310.404C662.402,316.423,678.982,328.462,695.065,334.481C711.148,340.5,726.734,340.5,734.527,340.5L742.32,340.5" id="my-svg-id_PoliticaDePrioridade_PrioridadeEstudo_4" class="edge-thickness-normal edge-pattern-dashed relation" style=";;;" data-edge="true" data-et="edge" data-id="id_PoliticaDePrioridade_PrioridadeEstudo_4" data-points="W3sieCI6NjMxLjg2MjYyNTY1NTU5NDUsInkiOjI5NC4yNX0seyJ4Ijo2OTUuNTYyNSwieSI6MzQwLjV9LHsieCI6NzQyLjMyMDMxMjUsInkiOjM0MC41fV0=" data-look="classic" marker-start="url(#my-svg_class-extensionStart)"/></g><g class="edgeLabels"><g class="edgeLabel" transform="translate(284.1328125, 197.5)"><g class="label" data-id="id_Reserva_PoliticaDePrioridade_1" transform="translate(-17.5234375, -16.5)"><foreignObject width="35.046875" height="33"><div xmlns="http://www.w3.org/1999/xhtml" class="labelBkg" style="display: table-cell; white-space: nowrap; line-height: 1.5; max-width: 200px; text-align: center;"><span class="edgeLabel"><p>usa</p></span></div></foreignObject></g></g><g class="edgeLabel"><g class="label" data-id="id_PoliticaDePrioridade_PrioridadeAcademica_2" transform="translate(0, 0)"><foreignObject width="0" height="0"><div xmlns="http://www.w3.org/1999/xhtml" class="labelBkg" style="display: table-cell; white-space: nowrap; line-height: 1.5; max-width: 200px; text-align: center;"><span class="edgeLabel"></span></div></foreignObject></g></g><g class="edgeLabel"><g class="label" data-id="id_PoliticaDePrioridade_PrioridadeEvento_3" transform="translate(0, 0)"><foreignObject width="0" height="0"><div xmlns="http://www.w3.org/1999/xhtml" class="labelBkg" style="display: table-cell; white-space: nowrap; line-height: 1.5; max-width: 200px; text-align: center;"><span class="edgeLabel"></span></div></foreignObject></g></g><g class="edgeLabel"><g class="label" data-id="id_PoliticaDePrioridade_PrioridadeEstudo_4" transform="translate(0, 0)"><foreignObject width="0" height="0"><div xmlns="http://www.w3.org/1999/xhtml" class="labelBkg" style="display: table-cell; white-space: nowrap; line-height: 1.5; max-width: 200px; text-align: center;"><span class="edgeLabel"></span></div></foreignObject></g></g></g><g class="nodes"><g class="node default" id="my-svg-classId-Reserva-0" data-look="classic" transform="translate(124.8046875, 197.5)"><g class="basic label-container outer-path"><path d="M-116.8046875 -72 L116.8046875 -72 L116.8046875 72 L-116.8046875 72" stroke="none" stroke-width="0" fill="#e7f2f0" style=""/><path d="M-116.8046875 -72 C-40.89778564423793 -72, 35.009116211524145 -72, 116.8046875 -72 M-116.8046875 -72 C-64.16457919344205 -72, -11.524470886884089 -72, 116.8046875 -72 M116.8046875 -72 C116.8046875 -28.135791117123013, 116.8046875 15.728417765753974, 116.8046875 72 M116.8046875 -72 C116.8046875 -16.738244717547808, 116.8046875 38.523510564904385, 116.8046875 72 M116.8046875 72 C57.91413504858083 72, -0.9764174028383366 72, -116.8046875 72 M116.8046875 72 C57.157382293601685 72, -2.4899229127966294 72, -116.8046875 72 M-116.8046875 72 C-116.8046875 29.92528572870998, -116.8046875 -12.14942854258004, -116.8046875 -72 M-116.8046875 72 C-116.8046875 30.88191113079818, -116.8046875 -10.23617773840364, -116.8046875 -72" stroke="#0f766e" stroke-width="1.3" fill="none" stroke-dasharray="0 0" style=""/></g><g class="annotation-group text" transform="translate(0, -48)"/><g class="label-group text" transform="translate(-42.796875, -48)"><g class="label" style="font-weight: bolder" transform="translate(0,-16.5)"><foreignObject width="85.59375" height="33"><div xmlns="http://www.w3.org/1999/xhtml" style="display: table-cell; white-space: nowrap; line-height: 1.5; max-width: 108px; text-align: center;"><span class="nodeLabel markdown-node-label" style=""><p>Reserva</p></span></div></foreignObject></g></g><g class="members-group text" transform="translate(-104.8046875, 9)"/><g class="methods-group text" transform="translate(-104.8046875, 39)"><g class="label" style="" transform="translate(0,-16.5)"><foreignObject width="166.8125" height="33"><div xmlns="http://www.w3.org/1999/xhtml" style="display: table-cell; white-space: nowrap; line-height: 1.5; max-width: 177px; text-align: center;"><span class="nodeLabel markdown-node-label" style=""><p>+prioridade() : int</p></span></div></foreignObject></g></g><g class="divider" style=""><path d="M-116.8046875 -15 C-59.76251385402265 -14.999755822412324, -2.7203402080453003 -14.999511644824649, 116.8046875 -14.999 M-116.8046875 -15 C-35.673321963949704 -14.99965270501008, 45.45804357210059 -14.999305410020158, 116.8046875 -14.999" stroke="#0f766e" stroke-width="1.3" fill="none" stroke-dasharray="0 0" style=""/></g><g class="divider" style=""><path d="M-116.8046875 9 C-66.38697387238818 9.000215820592079, -15.969260244776365 9.000431641184157, 116.8046875 9.001 M-116.8046875 9 C-44.50499493561708 9.000309489687922, 27.794697628765846 9.000618979375844, 116.8046875 9.001" stroke="#0f766e" stroke-width="1.3" fill="none" stroke-dasharray="0 0" style=""/></g></g><g class="node default" id="my-svg-classId-PoliticaDePrioridade-1" data-look="classic" transform="translate(498.609375, 197.5)"><g class="basic label-container outer-path"><path d="M-171.953125 -96.75 L171.953125 -96.75 L171.953125 96.75 L-171.953125 96.75" stroke="none" stroke-width="0" fill="#e7f2f0" style=""/><path d="M-171.953125 -96.75 C-66.38231844248757 -96.75, 39.18848811502485 -96.75, 171.953125 -96.75 M-171.953125 -96.75 C-95.57340071164136 -96.75, -19.19367642328271 -96.75, 171.953125 -96.75 M171.953125 -96.75 C171.953125 -29.19299866235346, 171.953125 38.36400267529308, 171.953125 96.75 M171.953125 -96.75 C171.953125 -41.48269288734187, 171.953125 13.784614225316261, 171.953125 96.75 M171.953125 96.75 C40.38031338736238 96.75, -91.19249822527524 96.75, -171.953125 96.75 M171.953125 96.75 C43.785974858558774 96.75, -84.38117528288245 96.75, -171.953125 96.75 M-171.953125 96.75 C-171.953125 39.85792509923035, -171.953125 -17.0341498015393, -171.953125 -96.75 M-171.953125 96.75 C-171.953125 25.053313374168496, -171.953125 -46.64337325166301, -171.953125 -96.75" stroke="#0f766e" stroke-width="1.3" fill="none" stroke-dasharray="0 0" style=""/></g><g class="annotation-group text" transform="translate(-52.7578125, -72.75)"><g class="label" style="" transform="translate(0,-16.5)"><foreignObject width="105.515625" height="33"><div xmlns="http://www.w3.org/1999/xhtml" style="display: table-cell; white-space: nowrap; line-height: 1.5; max-width: 127px; text-align: center;"><span class="nodeLabel markdown-node-label" style=""><p>«interface»</p></span></div></foreignObject></g></g><g class="label-group text" transform="translate(-107.90625, -39.75)"><g class="label" style="font-weight: bolder" transform="translate(0,-16.5)"><foreignObject width="215.8125" height="33"><div xmlns="http://www.w3.org/1999/xhtml" style="display: table; white-space: break-spaces; line-height: 1.5; max-width: 196px; text-align: center; width: 196px;"><span class="nodeLabel markdown-node-label" style=""><p>PoliticaDePrioridade</p></span></div></foreignObject></g></g><g class="members-group text" transform="translate(-159.953125, 17.25)"/><g class="methods-group text" transform="translate(-159.953125, 47.25)"><g class="label" style="" transform="translate(0,-33)"><foreignObject width="212" height="66"><div xmlns="http://www.w3.org/1999/xhtml" style="display: table; white-space: break-spaces; line-height: 1.5; max-width: 212px; text-align: center; width: 212px;"><span class="nodeLabel markdown-node-label" style=""><p>+calcular(reserva) : int</p></span></div></foreignObject></g></g><g class="divider" style=""><path d="M-171.953125 -6.75 C-55.66776369130211 -6.749661869008461, 60.617597617395774 -6.7493237380169235, 171.953125 -6.749 M-171.953125 -6.75 C-41.02956068652617 -6.749619304492682, 89.89400362694766 -6.749238608985364, 171.953125 -6.749" stroke="#0f766e" stroke-width="1.3" fill="none" stroke-dasharray="0 0" style=""/></g><g class="divider" style=""><path d="M-171.953125 17.25 C-85.1506698260639 17.250252401505275, 1.6517853478721918 17.250504803010553, 171.953125 17.251 M-171.953125 17.25 C-93.49910076699108 17.250228126194955, -15.045076533982154 17.250456252389906, 171.953125 17.251" stroke="#0f766e" stroke-width="1.3" fill="none" stroke-dasharray="0 0" style=""/></g></g><g class="node default" id="my-svg-classId-PrioridadeAcademica-2" data-look="classic" transform="translate(845.5546875, 54.5)"><g class="basic label-container outer-path"><path d="M-124.9921875 -46.5 L124.9921875 -46.5 L124.9921875 46.5 L-124.9921875 46.5" stroke="none" stroke-width="0" fill="#e7f2f0" style=""/><path d="M-124.9921875 -46.5 C-54.84740186247703 -46.5, 15.297383775045944 -46.5, 124.9921875 -46.5 M-124.9921875 -46.5 C-52.32375512556281 -46.5, 20.344677248874376 -46.5, 124.9921875 -46.5 M124.9921875 -46.5 C124.9921875 -18.320602456478824, 124.9921875 9.858795087042353, 124.9921875 46.5 M124.9921875 -46.5 C124.9921875 -21.339966999132802, 124.9921875 3.8200660017343964, 124.9921875 46.5 M124.9921875 46.5 C64.50736098355694 46.5, 4.022534467113857 46.5, -124.9921875 46.5 M124.9921875 46.5 C60.075568522446645 46.5, -4.841050455106711 46.5, -124.9921875 46.5 M-124.9921875 46.5 C-124.9921875 15.79046429327218, -124.9921875 -14.91907141345564, -124.9921875 -46.5 M-124.9921875 46.5 C-124.9921875 13.103220713984477, -124.9921875 -20.293558572031046, -124.9921875 -46.5" stroke="#0f766e" stroke-width="1.3" fill="none" stroke-dasharray="0 0" style=""/></g><g class="annotation-group text" transform="translate(0, -22.5)"/><g class="label-group text" transform="translate(-112.9921875, -22.5)"><g class="label" style="font-weight: bolder" transform="translate(0,-16.5)"><foreignObject width="225.984375" height="33"><div xmlns="http://www.w3.org/1999/xhtml" style="display: table; white-space: break-spaces; line-height: 1.5; max-width: 204px; text-align: center; width: 204px;"><span class="nodeLabel markdown-node-label" style=""><p>PrioridadeAcademica</p></span></div></foreignObject></g></g><g class="members-group text" transform="translate(-112.9921875, 34.5)"/><g class="methods-group text" transform="translate(-112.9921875, 64.5)"/><g class="divider" style=""><path d="M-124.9921875 10.5 C-27.69675919326056 10.500389206038605, 69.59866911347888 10.500778412077208, 124.9921875 10.501 M-124.9921875 10.5 C-59.440571717904305 10.500262222852056, 6.11104406419139 10.500524445704112, 124.9921875 10.501" stroke="#0f766e" stroke-width="1.3" fill="none" stroke-dasharray="0 0" style=""/></g><g class="divider" style=""><path d="M-124.9921875 28.5 C-58.50569056784228 28.500265962610392, 7.980806364315441 28.500531925220784, 124.9921875 28.501 M-124.9921875 28.5 C-65.50357264613379 28.5002379693325, -6.014957792267566 28.500475938664998, 124.9921875 28.501" stroke="#0f766e" stroke-width="1.3" fill="none" stroke-dasharray="0 0" style=""/></g></g><g class="node default" id="my-svg-classId-PrioridadeEvento-3" data-look="classic" transform="translate(845.5546875, 197.5)"><g class="basic label-container outer-path"><path d="M-102.640625 -46.5 L102.640625 -46.5 L102.640625 46.5 L-102.640625 46.5" stroke="none" stroke-width="0" fill="#e7f2f0" style=""/><path d="M-102.640625 -46.5 C-31.518161204655712 -46.5, 39.604302590688576 -46.5, 102.640625 -46.5 M-102.640625 -46.5 C-42.725358849647805 -46.5, 17.18990730070439 -46.5, 102.640625 -46.5 M102.640625 -46.5 C102.640625 -18.332951409057728, 102.640625 9.834097181884545, 102.640625 46.5 M102.640625 -46.5 C102.640625 -12.908676584991412, 102.640625 20.682646830017177, 102.640625 46.5 M102.640625 46.5 C59.02015247680282 46.5, 15.399679953605641 46.5, -102.640625 46.5 M102.640625 46.5 C57.33360707137111 46.5, 12.026589142742225 46.5, -102.640625 46.5 M-102.640625 46.5 C-102.640625 27.54459036013283, -102.640625 8.58918072026566, -102.640625 -46.5 M-102.640625 46.5 C-102.640625 24.18234640243865, -102.640625 1.8646928048773006, -102.640625 -46.5" stroke="#0f766e" stroke-width="1.3" fill="none" stroke-dasharray="0 0" style=""/></g><g class="annotation-group text" transform="translate(0, -22.5)"/><g class="label-group text" transform="translate(-90.640625, -22.5)"><g class="label" style="font-weight: bolder" transform="translate(0,-16.5)"><foreignObject width="181.28125" height="33"><div xmlns="http://www.w3.org/1999/xhtml" style="display: table; white-space: break-spaces; line-height: 1.5; max-width: 173px; text-align: center; width: 173px;"><span class="nodeLabel markdown-node-label" style=""><p>PrioridadeEvento</p></span></div></foreignObject></g></g><g class="members-group text" transform="translate(-90.640625, 34.5)"/><g class="methods-group text" transform="translate(-90.640625, 64.5)"/><g class="divider" style=""><path d="M-102.640625 10.5 C-55.46090197128499 10.50022982967528, -8.28117894256998 10.500459659350561, 102.640625 10.501 M-102.640625 10.5 C-33.26974396351852 10.500337930916908, 36.101137072962956 10.500675861833816, 102.640625 10.501" stroke="#0f766e" stroke-width="1.3" fill="none" stroke-dasharray="0 0" style=""/></g><g class="divider" style=""><path d="M-102.640625 28.5 C-53.429423154202034 28.500239725751115, -4.218221308404068 28.500479451502226, 102.640625 28.501 M-102.640625 28.5 C-37.23388292580522 28.500318620147112, 28.172859148389563 28.500637240294225, 102.640625 28.501" stroke="#0f766e" stroke-width="1.3" fill="none" stroke-dasharray="0 0" style=""/></g></g><g class="node default" id="my-svg-classId-PrioridadeEstudo-4" data-look="classic" transform="translate(845.5546875, 340.5)"><g class="basic label-container outer-path"><path d="M-103.234375 -46.5 L103.234375 -46.5 L103.234375 46.5 L-103.234375 46.5" stroke="none" stroke-width="0" fill="#e7f2f0" style=""/><path d="M-103.234375 -46.5 C-51.6229203177955 -46.5, -0.011465635590994339 -46.5, 103.234375 -46.5 M-103.234375 -46.5 C-51.03011527739199 -46.5, 1.1741444452160152 -46.5, 103.234375 -46.5 M103.234375 -46.5 C103.234375 -19.194303448684877, 103.234375 8.111393102630245, 103.234375 46.5 M103.234375 -46.5 C103.234375 -19.49968025054139, 103.234375 7.5006394989172165, 103.234375 46.5 M103.234375 46.5 C38.19640737920217 46.5, -26.84156024159566 46.5, -103.234375 46.5 M103.234375 46.5 C48.907464860025364 46.5, -5.419445279949272 46.5, -103.234375 46.5 M-103.234375 46.5 C-103.234375 10.369166888454934, -103.234375 -25.76166622309013, -103.234375 -46.5 M-103.234375 46.5 C-103.234375 14.087941809314565, -103.234375 -18.32411638137087, -103.234375 -46.5" stroke="#0f766e" stroke-width="1.3" fill="none" stroke-dasharray="0 0" style=""/></g><g class="annotation-group text" transform="translate(0, -22.5)"/><g class="label-group text" transform="translate(-91.234375, -22.5)"><g class="label" style="font-weight: bolder" transform="translate(0,-16.5)"><foreignObject width="182.46875" height="33"><div xmlns="http://www.w3.org/1999/xhtml" style="display: table; white-space: break-spaces; line-height: 1.5; max-width: 174px; text-align: center; width: 174px;"><span class="nodeLabel markdown-node-label" style=""><p>PrioridadeEstudo</p></span></div></foreignObject></g></g><g class="members-group text" transform="translate(-91.234375, 34.5)"/><g class="methods-group text" transform="translate(-91.234375, 64.5)"/><g class="divider" style=""><path d="M-103.234375 10.5 C-57.826497049279695 10.500219926153235, -12.41861909855939 10.500439852306469, 103.234375 10.501 M-103.234375 10.5 C-47.658577140604805 10.500269172927425, 7.917220718790389 10.500538345854851, 103.234375 10.501" stroke="#0f766e" stroke-width="1.3" fill="none" stroke-dasharray="0 0" style=""/></g><g class="divider" style=""><path d="M-103.234375 28.5 C-29.276220727667607 28.500358205075937, 44.68193354466479 28.500716410151874, 103.234375 28.501 M-103.234375 28.5 C-26.23282373041735 28.500372945306587, 50.7687275391653 28.500745890613178, 103.234375 28.501" stroke="#0f766e" stroke-width="1.3" fill="none" stroke-dasharray="0 0" style=""/></g></g></g></g></g><defs><filter id="my-svg-drop-shadow" height="130%" width="130%"><feDropShadow dx="4" dy="4" stdDeviation="0" flood-opacity="0.06" flood-color="#000000"/></filter></defs><defs><filter id="my-svg-drop-shadow-small" height="150%" width="150%"><feDropShadow dx="2" dy="2" stdDeviation="0" flood-opacity="0.06" flood-color="#000000"/></filter></defs><linearGradient id="my-svg-gradient" gradientUnits="objectBoundingBox" x1="0%" y1="0%" x2="100%" y2="0%"><stop offset="0%" stop-color="#0f766e" stop-opacity="1"/><stop offset="100%" stop-color="hsl(49.0909090909, 0%, 82.7450980392%)" stop-opacity="1"/></linearGradient></svg>